HIERARCHY
ROOT Hip
{
    OFFSET 0.0 0.0 0.0
    CHANNELS 6 Xposition Yposition Zposition Zrotation Xrotation Yrotation
    JOINT RightHip
    {
        OFFSET -6.463865811344549 0.0 0.0
        CHANNELS 3 Zrotation Xrotation Yrotation
        JOINT RightKnee
        {
            OFFSET 0.0 0.0 -23.41364584113836
            CHANNELS 3 Zrotation Xrotation Yrotation
            JOINT RightAnkle
            {
                OFFSET 0.0 0.0 -27.807878668422706
                CHANNELS 3 Zrotation Xrotation Yrotation
                End Site
                {
                    OFFSET 0.0 -11.123151467369084 0.0
                }
            }
        }
    }
    JOINT LeftHip
    {
        OFFSET 6.463865811344549 0.0 0.0
        CHANNELS 3 Zrotation Xrotation Yrotation
        JOINT LeftKnee
        {
            OFFSET 0.0 0.0 -23.41364584113836
            CHANNELS 3 Zrotation Xrotation Yrotation
            JOINT LeftAnkle
            {
                OFFSET 0.0 0.0 -27.807878668422706
                CHANNELS 3 Zrotation Xrotation Yrotation
                End Site
                {
                    OFFSET 0.0 -11.123151467369084 0.0
                }
            }
        }
    }
    JOINT Spine
    {
        OFFSET 0.0 0.0 19.294042092198698
        CHANNELS 3 Zrotation Xrotation Yrotation
        JOINT Thorax
        {
            OFFSET 0.0 0.0 21.36015011572316
            CHANNELS 3 Zrotation Xrotation Yrotation
            JOINT Neck
            {
                OFFSET 0.0 0.0 2.7479088144955854
                CHANNELS 3 Zrotation Xrotation Yrotation
                JOINT Head
                {
                    OFFSET 0.0 0.0 8.909501420683473
                    CHANNELS 3 Zrotation Xrotation Yrotation
                    End Site
                    {
                        OFFSET -3.563800568273389 0.0 0.0
                    }
                }
            }
            JOINT LeftShoulder
            {
                OFFSET 10.344226340972629 0.0 0.0
                CHANNELS 3 Zrotation Xrotation Yrotation
                JOINT LeftElbow
                {
                    OFFSET 23.86737130901483 0.0 0.0
                    CHANNELS 3 Zrotation Xrotation Yrotation
                    JOINT LeftWrist
                    {
                        OFFSET 13.683420285408946 0.0 0.0
                        CHANNELS 3 Zrotation Xrotation Yrotation
                        End Site
                        {
                            OFFSET 5.473368114163579 0.0 0.0
                        }
                    }
                }
            }
            JOINT RightShoulder
            {
                OFFSET -10.344226340972629 0.0 0.0
                CHANNELS 3 Zrotation Xrotation Yrotation
                JOINT RightElbow
                {
                    OFFSET -23.86737130901483 0.0 0.0
                    CHANNELS 3 Zrotation Xrotation Yrotation
                    JOINT RightWrist
                    {
                        OFFSET -13.683420285408946 0.0 0.0
                        CHANNELS 3 Zrotation Xrotation Yrotation
                        End Site
                        {
                            OFFSET -5.473368114163579 0.0 0.0
                        }
                    }
                }
            }
            JOINT Nose
            {
                OFFSET 0.0 0.0 8.867832575780968
                CHANNELS 3 Zrotation Xrotation Yrotation
                End Site
                {
                    OFFSET -3.5471330303123874 0.0 0.0
                }
            }
        }
    }
}
MOTION
Frames: 6
Frame Time: 0.03333333333333333
0.8140382127295885 42.49096363788021 7.020059596618573 -1.706696228777564 0.6132245844016063 -1.7464288862580066 2.546783430727117 -5.453647831958213 6.841960779778102 4.101206767188505 12.157802477689804 -11.855173608940797 -3.975693351829396e-16 1.034509288605506e-33 -2.981770013872047e-16 -4.040013392197287 -10.931420677529383 -13.947500222003796 3.972282811319216 19.558698137781164 16.552734699423002 0.0 0.0 1.987846675914698e-16 -1.9450910911247625e-16 1.1383316726013013 -4.313775530149097e-16 2.222149630690986 -0.010169676574097399 -0.13173528995709324 -2.7597200589948447 -16.254907876293352 -15.091424634145948 3.003848585404008e-34 -1.2424041724466862e-17 2.7705613045561103e-15 -85.80600610272413 -42.01118107716123 10.9282987250184 7.092108428980179e-15 -5.306961847288686e-16 -61.68893611697554 0.0 0.0 0.0 78.62557170004425 -45.569425604856704 -12.840659207065807 -7.1048865685971994e-15 -3.1658688580636075e-16 58.23281621473032 0.0 0.0 -3.1805546814635168e-15 0.0 0.0 1.6306554763362756e-16
0.8143623684290058 42.50472270313134 7.017166302234795 -1.7052380810200038 0.5913166202215719 -1.7784767665095949 2.5497392379628527 -5.470217585438816 6.877868519680395 4.110557976760318 12.228977658699135 -11.861999756339241 -3.975693351829396e-16 -3.4483642953516864e-34 9.93923337957349e-17 -4.203750528344061 -10.896374610892602 -13.972550127099028 4.2654664658588555 19.356897382334306 16.235665589592983 0.0 0.0 2.4848083448933725e-17 -3.944744546307845e-16 1.1582825662592313 -3.081825425024878e-16 1.7098884217779957 -0.015782664045569043 -0.23131397997605052 -2.217045311197924 -16.260745415481907 -15.544399782106318 1.987846675914698e-16 -1.8319435319055835e-33 -1.0560435465796834e-15 -85.26926366200759 -42.1069221178294 10.98377430324779 -4.892624685024482e-15 -8.191799340041512e-15 -61.696268868680235 0.0 0.0 0.0 79.13586030189038 -45.340231349945384 -12.695538417021616 -1.8225100504872434e-14 -6.491151717002133e-15 58.13293248210512 0.0 0.0 -3.1805546814635168e-15 -1.0871036508908503e-17 -1.8024906828711122e-35 1.9000048184096782e-16
0.8170037668417396 42.616839112561635 6.9935901528515725 -1.681294267296349 0.5715167066175271 -1.8377693993981923 2.476397451589082 -5.547366058907915 6.747751491175148 4.1147547389912775 12.431467074493247 -12.158042538509859 0.0 0.0 0.0 -4.586927656640347 -11.162974030989927 -14.181078426963014 4.983972771412445 20.074640873366672 16.661709981753095 0.0 0.0 1.4908850069360235e-16 -1.9777855547684124e-16 1.238587118055778 -9.415413349158828e-17 1.697374931641301 -0.01431202000407005 -0.209004951962776 -2.258919051499803 -16.30925598210312 -16.908721469114997 0.0 0.0 -4.845376272542076e-16 -85.43983751516981 -41.91534142128011 10.811100426804083 4.831712210145935e-15 8.227873957125384e-15 -60.84606639334094 0.0 0.0 0.0 79.19604946443403 -44.6668759829007 -12.185957526770672 3.401707071860951e-14 4.035660690833803e-15 57.13429511402798 0.0 6.361109362927032e-15 0.0 -3.1060104311167156e-18 -3.837157687965725e-36 1.4156613168074155e-16
0.8082242236973833 42.244183912559144 7.071953121379878 -1.7386909592885418 0.5917372122054159 -1.8453554537735661 2.525177249187824 -5.556201230129236 6.823570954710124 4.127058411441679 12.476511450175366 -11.857839141645373 0.0 0.0 2.4848083448933725e-16 -4.69133664000148 -11.164204703522934 -14.082928890934285 5.343401870047599 20.35324184949285 16.196930709848903 0.0 0.0 -4.969616689786745e-17 4.73995183561426e-18 1.1502700872149276 -4.721849531878121e-16 1.747337732147746 -0.013237001646201603 -0.1947413852487776 -2.271661284428885 -16.18782907160571 -17.063700698575552 1.987846675914698e-16 -3.4483642953516864e-34 -1.987846675914698e-16 -85.40287498704502 -41.86733792743248 10.859467855063155 1.4197415931503343e-14 -8.671461834575037e-16 -60.12041284588153 0.0 0.0 0.0 79.07312362922305 -44.33247245306521 -12.29732550150715 5.58387312706674e-15 3.0469777202893803e-15 57.24035159096578 0.0 0.0 0.0 -9.318031293350145e-18 -5.895831593233588e-36 7.250593100138082e-17
0.8091448286313925 42.2832597744993 7.063736140805308 -1.7152960024951605 0.6142322681774101 -1.7094465371447927 2.5186611893424775 -5.557198706846604 6.768633178240919 4.101345902971133 12.685435309328689 -11.955098953018586 0.0 0.0 1.4908850069360235e-16 -4.637529217157512 -11.014474565926113 -13.918794548226641 5.389517526135424 19.931270041115145 15.872964260069251 0.0 0.0 1.4908850069360235e-16 -1.1822884551465402e-18 1.162946907401918 1.1649338860898628e-16 1.7346496185330678 -0.021510888284649362 -0.3156718289431469 -2.279819535098623 -16.219308739558087 -17.061879144776352 4.969616689786745e-17 1.050673496239967e-34 2.422688136271038e-16 -85.08327281815632 -41.64174560446936 10.77467246735657 2.5197822742357363e-14 -7.276870110545021e-15 -60.28882588678382 0.0 -7.156248033292914e-15 0.0 79.01148163773752 -44.61255439241912 -12.321152011073888 4.0466605760753445e-15 5.848433857960183e-15 57.50946625886987 0.0 0.0 0.0 3.1060104311167156e-18 1.4759310681856507e-36 5.445224537051492e-17
0.8017922849571981 41.971174784610575 7.129362237638635 -1.7915513389369098 0.6024348245081455 -1.6473923539346402 2.622337525123789 -5.533772644938174 6.702901961844657 3.497403547731487 12.497442354771993 -11.579581691907073 0.0 0.0 2.7332891793827095e-16 -4.46310458498295 -11.083186050043372 -14.055717824177746 5.558496525582433 20.591796918328797 16.397631332313782 0.0 0.0 -1.4908850069360235e-16 3.977018735171677e-16 1.2125983261976028 -1.0420973846553124e-17 1.8052500398049873 -0.025004286196451092 -0.3516592654507822 -2.326992059683793 -16.311920575992193 -17.170652161997527 -1.987846675914698e-16 1.7565105629447653e-33 -1.0125594005440493e-15 -85.03898096483138 -40.76271941003372 10.718369390557 4.683087422273896e-15 -1.737176993896373e-14 -59.82567783823259 0.0 0.0 3.1805546814635168e-15 78.93161726128862 -44.94456275518531 -12.404678793123292 7.105866873020956e-15 2.9376247514084457e-16 57.864717146129884 0.0 0.0 0.0 0.0 0.0 -1.2326978898494466e-16
